<svg width="49" height="48" viewBox="0 0 49 48" fill="none" xmlns="http://www.w3.org/2000/svg">
<mask id="mask0_5973_18301" style="mask-type:alpha" maskUnits="userSpaceOnUse" x="0" y="0" width="65" height="64">
<rect x="0.5" width="64" height="64" fill="#D9D9D9"/>
</mask>
<g mask="url(#mask0_5973_18301)">
<path d="M17.2692 44C16.5211 44 15.8726 43.7255 15.3235 43.1765C14.7745 42.6274 14.5 41.9788 14.5 41.2307V34.9307H16.0384V38.1538H36.9615V9.8461H16.0384V13.0692H14.5V6.76915C14.5 6.02108 14.7745 5.37253 15.3235 4.8235C15.8726 4.2745 16.5211 4 17.2692 4H35.7308C36.4788 4 37.1274 4.27452 37.6764 4.82355C38.2255 5.37258 38.5 6.02113 38.5 6.7692V41.2308C38.5 41.9789 38.2255 42.6274 37.6764 43.1764C37.1274 43.7255 36.4788 44 35.7308 44H17.2692ZM16.0384 39.6923V41.2308C16.0384 41.5385 16.1666 41.8205 16.423 42.0769C16.6795 42.3333 16.9615 42.4615 17.2692 42.4615H35.7308C36.0385 42.4615 36.3205 42.3333 36.5769 42.0769C36.8333 41.8205 36.9615 41.5385 36.9615 41.2308V39.6923H16.0384ZM8.99613 32.3115L7.88458 31.2L20.5577 18.5384H11.5V17H23.2577V28.7577H21.7192V19.6384L8.99613 32.3115ZM16.0384 8.3077H36.9615V6.7692C36.9615 6.46153 36.8333 6.17948 36.5769 5.92305C36.3205 5.66665 36.0385 5.53845 35.7308 5.53845H17.2692C16.9615 5.53845 16.6795 5.66665 16.423 5.92305C16.1666 6.17948 16.0384 6.46153 16.0384 6.7692V8.3077Z" fill="#232B33"/>
</g>
</svg>
