<svg width="49" height="48" viewBox="0 0 49 48" fill="none" xmlns="http://www.w3.org/2000/svg">
<mask id="mask0_5973_18380" style="mask-type:alpha" maskUnits="userSpaceOnUse" x="0" y="0" width="49" height="48">
<rect x="0.5" width="48" height="48" fill="#D9D9D9"/>
</mask>
<g mask="url(#mask0_5973_18380)">
<path d="M4.49994 36V19.2308L16.2807 10.8384L28.05 19.2308V22.7731C27.7577 23.0603 27.4897 23.3654 27.2461 23.6885C27.0025 24.0116 26.7577 24.3526 26.5115 24.7115V20.0116L16.2807 12.8077L6.03844 20.043V34.4615H11.9V25.45H20.6615V34.4615H24.1923C24.2277 34.733 24.2872 34.9983 24.3708 35.2575C24.4544 35.5166 24.5359 35.7641 24.6154 36H19.123V26.9885H13.4384V36H4.49994ZM44.5 4V22.2039C44.2776 21.9753 44.0368 21.7771 43.7774 21.6094C43.5181 21.4416 43.2461 21.2641 42.9615 21.077V5.53845H22.9423V11.2154L21.4038 10.1539V4H44.5ZM35.35 13.0039H37.9654V10.3884H35.35V13.0039ZM36.7973 40C34.6622 40 32.8449 39.2481 31.3454 37.7443C29.8459 36.2404 29.0961 34.4269 29.0961 32.3039C29.0961 30.1427 29.8457 28.3094 31.3449 26.8041C32.8441 25.2988 34.6699 24.5462 36.8223 24.5462C38.9408 24.5462 40.7519 25.2988 42.2558 26.8041C43.7596 28.3094 44.5115 30.1427 44.5115 32.3039C44.5115 34.4269 43.7596 36.2404 42.2558 37.7443C40.7519 39.2481 38.9324 40 36.7973 40ZM36.1307 38.2308H37.5115V33H42.7423V31.6193H37.5115V26.3885H36.1307V31.6193H30.9V33H36.1307V38.2308Z" fill="#1C1B1F"/>
</g>
</svg>
