<svg width="32" height="32" viewBox="0 0 32 32" fill="none" xmlns="http://www.w3.org/2000/svg">
<path d="M15.9998 29.3332C8.63584 29.3332 2.6665 23.3638 2.6665 15.9998C2.6665 8.63584 8.63584 2.6665 15.9998 2.6665C23.3638 2.6665 29.3332 8.63584 29.3332 15.9998C29.3332 23.3638 23.3638 29.3332 15.9998 29.3332ZM15.9998 26.6665C18.8288 26.6665 21.5419 25.5427 23.5423 23.5423C25.5427 21.5419 26.6665 18.8288 26.6665 15.9998C26.6665 13.1709 25.5427 10.4578 23.5423 8.45737C21.5419 6.45698 18.8288 5.33317 15.9998 5.33317C13.1709 5.33317 10.4578 6.45698 8.45737 8.45737C6.45698 10.4578 5.33317 13.1709 5.33317 15.9998C5.33317 18.8288 6.45698 21.5419 8.45737 23.5423C10.4578 25.5427 13.1709 26.6665 15.9998 26.6665ZM14.6705 21.3332L9.01317 15.6758L10.8985 13.7905L14.6705 17.5625L22.2118 10.0198L24.0985 11.9052L14.6705 21.3332Z" fill="#2A76C4"/>
</svg>
