<svg width="25" height="24" viewBox="0 0 25 24" fill="none" xmlns="http://www.w3.org/2000/svg">
<path d="M15.328 7.75689L9.67198 13.4139C9.57647 13.5061 9.50029 13.6165 9.44788 13.7385C9.39547 13.8605 9.36789 13.9917 9.36673 14.1245C9.36558 14.2573 9.39088 14.3889 9.44116 14.5118C9.49144 14.6347 9.56569 14.7464 9.65959 14.8403C9.75348 14.9342 9.86513 15.0084 9.98803 15.0587C10.1109 15.109 10.2426 15.1343 10.3754 15.1331C10.5082 15.132 10.6394 15.1044 10.7614 15.052C10.8834 14.9996 10.9937 14.9234 11.086 14.8279L16.743 9.17189C17.3056 8.60923 17.6217 7.8461 17.6217 7.05039C17.6217 6.25467 17.3056 5.49154 16.743 4.92889C16.1803 4.36623 15.4172 4.05013 14.6215 4.05013C13.8258 4.05013 13.0626 4.36623 12.5 4.92889L6.84298 10.5859C6.36906 11.048 5.99161 11.5996 5.73254 12.2088C5.47347 12.8179 5.33793 13.4724 5.33378 14.1344C5.32963 14.7963 5.45696 15.4525 5.70838 16.0648C5.9598 16.6771 6.3303 17.2334 6.7984 17.7015C7.26649 18.1695 7.82286 18.5399 8.43524 18.7913C9.04761 19.0426 9.70379 19.1698 10.3657 19.1656C11.0276 19.1614 11.6821 19.0257 12.2912 18.7666C12.9003 18.5074 13.4519 18.1299 13.914 17.6559L19.571 11.9999L20.985 13.4139L15.328 19.0709C14.6779 19.7209 13.9062 20.2366 13.0569 20.5884C12.2076 20.9402 11.2973 21.1212 10.378 21.1212C9.45868 21.1212 8.54838 20.9402 7.69906 20.5884C6.84974 20.2366 6.07802 19.7209 5.42798 19.0709C4.77794 18.4208 4.2623 17.6491 3.91049 16.7998C3.55869 15.9505 3.37762 15.0402 3.37762 14.1209C3.37762 13.2016 3.55869 12.2913 3.91049 11.442C4.2623 10.5926 4.77794 9.82093 5.42798 9.17089L11.086 3.51489C12.029 2.6041 13.292 2.10013 14.603 2.11152C15.914 2.12291 17.168 2.64875 18.0951 3.57579C19.0221 4.50284 19.548 5.7569 19.5594 7.06788C19.5707 8.37887 19.0668 9.64188 18.156 10.5849L12.5 16.2439C12.2213 16.5225 11.8905 16.7435 11.5264 16.8942C11.1624 17.045 10.7722 17.1225 10.3781 17.1225C9.98408 17.1224 9.59391 17.0448 9.22987 16.894C8.86584 16.7431 8.53508 16.5221 8.25648 16.2434C7.97788 15.9647 7.7569 15.6339 7.60615 15.2698C7.45539 14.9058 7.37783 14.5156 7.37787 14.1215C7.37792 13.7275 7.45558 13.3373 7.60642 12.9733C7.75725 12.6092 7.97832 12.2785 8.25698 11.9999L13.914 6.34289L15.328 7.75689Z" fill="#989C9F"/>
</svg>
