<svg width="49" height="48" viewBox="0 0 49 48" fill="none" xmlns="http://www.w3.org/2000/svg">
<mask id="mask0_5973_18309" style="mask-type:alpha" maskUnits="userSpaceOnUse" x="0" y="0" width="49" height="48">
<rect x="0.833313" width="48" height="48" fill="#D9D9D9"/>
</mask>
<g mask="url(#mask0_5973_18309)">
<path d="M36.2679 18.4692L30.3256 12.5653L33.3256 9.60383C33.8666 9.06279 34.5153 8.79228 35.2717 8.79228C36.0282 8.79228 36.6769 9.06279 37.2179 9.60383L39.2294 11.6538C39.7705 12.1949 40.041 12.8436 40.041 13.6C40.041 14.3564 39.7705 14.9923 39.2294 15.5077L36.2679 18.4692ZM8.56405 40.2308V34.2384L17.9563 24.8461L7.1756 14.0154L14.0679 7.09998L24.9487 17.9423L30.3256 12.5653L36.2679 18.4692L30.9294 23.8846L41.7333 34.7654L34.8294 41.6077L23.9602 30.8269L14.5564 40.2308H8.56405ZM19.0679 23.773L23.8371 19.0038L19.4564 14.5846L17.0948 16.9846L15.9948 15.8846L18.3563 13.523L14.0794 9.24612L9.31025 14.0154L19.0679 23.773ZM34.7679 39.4846L39.5372 34.7154L35.2602 30.4384L32.8987 32.8L31.7987 31.7L34.1602 29.3384L29.7794 24.9577L25.0102 29.7269L34.7679 39.4846ZM10.1025 38.6923H13.8717L34.0448 18.5192L30.2756 14.75L10.1025 34.9231V38.6923Z" fill="#232B33"/>
</g>
</svg>
