<svg width="49" height="48" viewBox="0 0 49 48" fill="none" xmlns="http://www.w3.org/2000/svg">
<mask id="mask0_5973_18317" style="mask-type:alpha" maskUnits="userSpaceOnUse" x="0" y="0" width="49" height="48">
<rect x="0.166748" width="48" height="48" fill="#D9D9D9"/>
</mask>
<g mask="url(#mask0_5973_18317)">
<path d="M37.3232 41.9615C37.1266 41.9615 36.9514 41.9282 36.7975 41.8615C36.6437 41.7948 36.4962 41.691 36.3552 41.55L25.5245 30.7192C25.3834 30.5782 25.2732 30.432 25.1937 30.2807C25.1142 30.1294 25.0745 29.9589 25.0745 29.7692C25.0745 29.5794 25.1142 29.4076 25.1937 29.2538C25.2732 29.1 25.3834 28.9525 25.5245 28.8115L28.8514 25.4846C28.9924 25.3435 29.141 25.2333 29.2972 25.1538C29.4534 25.0743 29.6291 25.0346 29.8245 25.0346C30.0105 25.0346 30.1775 25.0743 30.3255 25.1538C30.4735 25.2333 30.6308 25.3435 30.7975 25.4846L41.6283 36.3154C41.7693 36.4564 41.8732 36.6055 41.9399 36.7628C42.0065 36.92 42.0399 37.097 42.0399 37.2936C42.0399 37.4901 42.0065 37.6653 41.9399 37.8192C41.8732 37.973 41.7693 38.1205 41.6283 38.2615L38.3014 41.55C38.1604 41.691 38.0112 41.7948 37.854 41.8615C37.6967 41.9282 37.5198 41.9615 37.3232 41.9615ZM37.3283 40.4L40.4399 37.2884L29.786 26.6346L26.6745 29.7461L37.3283 40.4ZM10.9501 41.9615C10.7535 41.9615 10.5764 41.9282 10.4187 41.8615C10.261 41.7948 10.1116 41.691 9.9706 41.55L6.6552 38.2731C6.51417 38.132 6.41032 37.9802 6.34365 37.8175C6.27699 37.6549 6.24365 37.476 6.24365 37.281C6.24365 37.0859 6.27699 36.9051 6.34365 36.7384C6.41032 36.5717 6.51099 36.4211 6.64565 36.2864L17.2514 25.6807H21.4245L23.0552 24.05L14.3437 15.3384H11.4937L6.35905 10.2038L10.3091 6.25381L15.4437 11.3884V14.2384L24.1552 22.95L30.5014 16.6038L26.2668 12.3692L28.5283 10.1077H23.9937L23.4014 9.55381L28.7629 4.19226L29.3168 4.74611V9.31921L31.5783 7.05766L40.1437 15.5461C40.5917 15.9799 40.9319 16.487 41.1643 17.0676C41.3967 17.6481 41.5129 18.2602 41.5129 18.9038C41.5129 19.3012 41.4559 19.7121 41.3418 20.1365C41.2277 20.5609 41.0732 20.9589 40.8783 21.3307L36.7822 17.2346L33.9437 20.0731L31.5745 17.7038L22.486 26.7923V31.0308L11.9188 41.5595C11.7841 41.6942 11.6381 41.7948 11.4809 41.8615C11.3236 41.9282 11.1467 41.9615 10.9501 41.9615ZM10.9552 40.3615L21.4937 29.8231V26.7115H18.3822L7.84365 37.25L10.9552 40.3615ZM10.9552 40.3615L7.84365 37.25L9.3986 38.8066L10.9552 40.3615Z" fill="#232B33"/>
</g>
</svg>
