<svg width="117" height="22" viewBox="0 0 117 22" fill="none" xmlns="http://www.w3.org/2000/svg">
<path d="M54.1246 0.578948C54.1246 0.259204 54.3862 0 54.709 0H55.644C55.9668 0 56.2284 0.259204 56.2284 0.578947V21.4211C56.2284 21.7408 55.9668 22 55.644 22H54.709C54.3862 22 54.1246 21.7408 54.1246 21.4211V0.578948Z" fill="#6A6F75"/>
<path d="M19.004 3.97842C19.2284 4.08958 19.5089 4.14516 19.8455 4.14516C20.232 4.14516 20.5624 4.06488 20.8367 3.90432C21.111 3.7314 21.3291 3.52144 21.4912 3.27442C21.6533 3.01505 21.7717 2.75568 21.8465 2.49632C21.9213 2.2246 21.9587 1.98993 21.9587 1.79232C21.9587 1.70586 21.9276 1.63175 21.8652 1.57C21.8154 1.49589 21.7343 1.45884 21.6221 1.45884H20.5001C20.3629 1.45884 20.2632 1.50825 20.2009 1.60705C20.1385 1.69351 20.07 1.78614 19.9952 1.88495C19.9328 1.98375 19.8144 2.03316 19.6398 2.03316C19.4279 2.03316 19.2284 1.97758 19.0414 1.86642C18.8544 1.75526 18.6487 1.64411 18.4243 1.53295C18.1999 1.42179 17.9131 1.36621 17.564 1.36621C17.1776 1.36621 16.8472 1.45267 16.5729 1.62558C16.3111 1.78614 16.0929 1.99611 15.9184 2.25547C15.7563 2.50249 15.6379 2.76186 15.5631 3.03358C15.5007 3.3053 15.4696 3.53997 15.4696 3.73758C15.4696 3.81168 15.5007 3.88579 15.5631 3.95989C15.6254 4.02165 15.7002 4.05253 15.7875 4.05253H16.9095C17.0467 4.05253 17.1464 4.00312 17.2087 3.90432C17.2711 3.80551 17.3396 3.71288 17.4144 3.62642C17.4892 3.53997 17.6139 3.49674 17.7885 3.49674C18.0129 3.49674 18.2123 3.55232 18.3869 3.66347C18.5739 3.76228 18.7796 3.86726 19.004 3.97842Z" fill="#2A76C4"/>
<path fill-rule="evenodd" clip-rule="evenodd" d="M15.7314 17.5767C16.5791 17.9473 17.5765 18.1325 18.7235 18.1325C19.8705 18.1325 20.8679 17.9473 21.7156 17.5767C22.5634 17.2062 23.2242 16.6504 23.6979 15.9094C24.1717 15.156 24.4335 14.2173 24.4833 13.0934C24.5083 12.5623 24.5207 12.0312 24.5207 11.5001C24.5207 10.969 24.5083 10.4318 24.4833 9.88832C24.4459 8.77674 24.1841 7.84425 23.6979 7.09084C23.2117 6.32509 22.5385 5.75077 21.6782 5.3679C20.8305 4.98502 19.8455 4.79358 18.7235 4.79358C17.589 4.79358 16.5978 4.98502 15.7501 5.3679C14.9023 5.75077 14.2353 6.32509 13.7491 7.09084C13.2753 7.84425 13.0135 8.77674 12.9636 9.88832C12.9512 10.4318 12.9449 10.969 12.9449 11.5001C12.9449 12.0312 12.9512 12.5623 12.9636 13.0934C13.0135 14.2173 13.2753 15.156 13.7491 15.9094C14.2228 16.6504 14.8836 17.2062 15.7314 17.5767ZM20.3318 14.8719C19.9203 15.2671 19.3843 15.4647 18.7235 15.4647C18.0627 15.4647 17.5266 15.2671 17.1152 14.8719C16.7038 14.4767 16.4794 13.8468 16.442 12.9822C16.4295 12.4388 16.4233 11.9262 16.4233 11.4445C16.4233 10.9628 16.4295 10.4626 16.442 9.9439C16.4669 9.3634 16.5791 8.89407 16.7786 8.5359C16.9781 8.16537 17.2461 7.89365 17.5828 7.72074C17.9194 7.54782 18.2996 7.46137 18.7235 7.46137C19.1599 7.46137 19.5463 7.54782 19.8829 7.72074C20.2196 7.89365 20.4814 8.16537 20.6684 8.5359C20.8679 8.89407 20.9801 9.3634 21.005 9.9439C21.0299 10.4626 21.0424 10.9628 21.0424 11.4445C21.0424 11.9262 21.0299 12.4388 21.005 12.9822C20.9801 13.8468 20.7557 14.4767 20.3318 14.8719Z" fill="#2A76C4"/>
<path fill-rule="evenodd" clip-rule="evenodd" d="M0.96752 17.9473C0.830381 17.9473 0.718176 17.904 0.630906 17.8176C0.543635 17.7311 0.5 17.62 0.5 17.4841V5.442C0.5 5.30614 0.543635 5.19498 0.630906 5.10853C0.718176 5.02207 0.830381 4.97884 0.96752 4.97884H6.05414C7.66241 4.97884 8.92783 5.34937 9.8504 6.09042C10.7854 6.81912 11.253 7.8566 11.253 9.20284C11.253 10.0798 11.0348 10.8208 10.5984 11.426C10.1746 12.0312 9.61353 12.4882 8.91536 12.7969L11.4961 17.3544C11.5335 17.4285 11.5522 17.4965 11.5522 17.5582C11.5522 17.657 11.5085 17.7497 11.4213 17.8361C11.3465 17.9102 11.253 17.9473 11.1408 17.9473H8.67225C8.43538 17.9473 8.26084 17.8917 8.14863 17.7805C8.03643 17.657 7.95539 17.5459 7.90552 17.4471L5.77363 13.3713H3.84745V17.4841C3.84745 17.62 3.80381 17.7311 3.71654 17.8176C3.62927 17.904 3.51706 17.9473 3.37992 17.9473H0.96752ZM3.84745 10.7591H6.01674C6.6027 10.7591 7.03905 10.617 7.3258 10.3329C7.62501 10.0489 7.77461 9.65983 7.77461 9.16579C7.77461 8.68411 7.63124 8.29505 7.3445 7.99863C7.07022 7.70221 6.62763 7.554 6.01674 7.554H3.84745V10.7591Z" fill="#2A76C4"/>
<path fill-rule="evenodd" clip-rule="evenodd" d="M27.156 17.9473C27.0188 17.9473 26.9066 17.904 26.8193 17.8176C26.7321 17.7311 26.6884 17.62 26.6884 17.4841V5.442C26.6884 5.30614 26.7321 5.19498 26.8193 5.10853C26.9066 5.02207 27.0188 4.97884 27.156 4.97884H32.0182C33.24 4.97884 34.281 5.17646 35.1412 5.57168C36.0014 5.95456 36.6622 6.5227 37.1235 7.27611C37.5848 8.01716 37.8341 8.9373 37.8715 10.0365C37.884 10.58 37.8902 11.0555 37.8902 11.4631C37.8902 11.8706 37.884 12.34 37.8715 12.8711C37.8216 14.0197 37.5723 14.9707 37.1235 15.7241C36.6871 16.4775 36.0451 17.0395 35.1973 17.41C34.362 17.7682 33.3335 17.9473 32.1117 17.9473H27.156ZM30.0359 15.2795H32.0182C32.5543 15.2795 32.9968 15.1992 33.3459 15.0386C33.7075 14.8657 33.9755 14.6002 34.1501 14.242C34.3371 13.8838 34.4368 13.4145 34.4493 12.834C34.4742 12.4758 34.4867 12.1547 34.4867 11.8706C34.4991 11.5866 34.4991 11.3025 34.4867 11.0184C34.4867 10.7344 34.4742 10.4194 34.4493 10.0736C34.4243 9.23372 34.1999 8.62235 33.776 8.23947C33.3646 7.84425 32.7475 7.64663 31.9247 7.64663H30.0359V15.2795Z" fill="#2A76C4"/>
<path d="M45.5542 18.1325C44.4321 18.1325 43.4472 17.9534 42.5995 17.5953C41.7642 17.2247 41.1159 16.6628 40.6546 15.9094C40.1933 15.1436 39.9626 14.1741 39.9626 13.0007V5.442C39.9626 5.30614 40.0063 5.19498 40.0936 5.10853C40.1808 5.02207 40.293 4.97884 40.4302 4.97884H42.8426C42.9797 4.97884 43.0919 5.02207 43.1792 5.10853C43.2665 5.19498 43.3101 5.30614 43.3101 5.442V12.9822C43.3101 13.785 43.5033 14.3902 43.8898 14.7978C44.2888 15.193 44.8436 15.3906 45.5542 15.3906C46.2523 15.3906 46.7947 15.193 47.1812 14.7978C47.5801 14.3902 47.7796 13.785 47.7796 12.9822V5.442C47.7796 5.30614 47.8232 5.19498 47.9105 5.10853C48.0102 5.02207 48.1224 4.97884 48.2471 4.97884C49.041 4.97884 50.1899 4.97884 50.7584 4.97884V15.2921C50.6715 15.5108 50.57 15.7165 50.4538 15.9094C49.9925 16.6628 49.3442 17.2247 48.5089 17.5953C47.6736 17.9534 46.6887 18.1325 45.5542 18.1325Z" fill="#2A76C4"/>
<path d="M107.767 17.6137C108.59 17.9596 109.624 18.1325 110.871 18.1325C111.968 18.1325 112.941 17.9719 113.788 17.6508C114.636 17.3297 115.297 16.8665 115.771 16.2613C116.257 15.6438 116.5 14.9151 116.5 14.0752C116.5 13.3218 116.338 12.6981 116.014 12.2041C115.69 11.6977 115.178 11.2901 114.48 10.9813C113.782 10.6602 112.866 10.3947 111.731 10.1847C111.046 10.0365 110.503 9.89445 110.104 9.75859C109.718 9.62273 109.437 9.46217 109.263 9.2769C109.101 9.09164 109.02 8.8755 109.02 8.62848C109.02 8.23325 109.169 7.94301 109.468 7.75775C109.78 7.56013 110.21 7.46132 110.759 7.46132C111.27 7.46132 111.681 7.56631 111.993 7.77627C112.317 7.97388 112.517 8.20855 112.592 8.48027C112.666 8.59143 112.754 8.67171 112.853 8.72111C112.953 8.77052 113.072 8.79522 113.209 8.79522H115.677C115.789 8.79522 115.883 8.75817 115.958 8.68406C116.032 8.5976 116.07 8.50497 116.07 8.40617C116.057 8.01094 115.933 7.60953 115.696 7.20195C115.471 6.78203 115.135 6.3868 114.686 6.01627C114.237 5.64574 113.682 5.34932 113.022 5.12701C112.373 4.90469 111.619 4.79353 110.759 4.79353C109.699 4.79353 108.783 4.96027 108.01 5.29374C107.237 5.62722 106.632 6.09038 106.196 6.68322C105.772 7.27606 105.56 7.94918 105.56 8.70259C105.56 9.46834 105.735 10.1106 106.084 10.6293C106.433 11.1357 106.938 11.5495 107.598 11.8706C108.272 12.1794 109.082 12.4326 110.03 12.6302C110.765 12.7784 111.351 12.9266 111.787 13.0748C112.236 13.2107 112.56 13.3712 112.76 13.5565C112.959 13.7294 113.059 13.9517 113.059 14.2234C113.059 14.6063 112.872 14.9089 112.498 15.1312C112.136 15.3535 111.594 15.4647 110.871 15.4647C110.435 15.4647 110.067 15.4153 109.768 15.3165C109.481 15.2053 109.244 15.0633 109.057 14.8904C108.883 14.7175 108.745 14.5384 108.646 14.3531C108.571 14.2543 108.484 14.174 108.384 14.1123C108.297 14.0505 108.166 14.0196 107.991 14.0196H105.635C105.523 14.0196 105.423 14.0629 105.336 14.1493C105.261 14.2234 105.223 14.3099 105.223 14.4087C105.248 15.0509 105.473 15.6561 105.897 16.2243C106.321 16.7924 106.944 17.2556 107.767 17.6137Z" fill="#2A76C4"/>
<path d="M59.1692 9.5548L62.6288 5.3308C62.6787 5.25669 62.7597 5.18259 62.8719 5.10848C62.9966 5.02203 63.1587 4.9788 63.3581 4.9788H66.0511C66.1633 4.9788 66.2568 5.02203 66.3316 5.10848C66.4064 5.18259 66.4438 5.26904 66.4438 5.36785C66.4438 5.45431 66.4188 5.52841 66.369 5.59017L61.8995 11.1851L66.7243 17.3359C66.7742 17.3853 66.7991 17.4594 66.7991 17.5582C66.7991 17.657 66.7555 17.7496 66.6682 17.8361C66.5934 17.9102 66.5061 17.9472 66.4064 17.9472H63.62C63.3955 17.9472 63.221 17.8978 63.0963 17.799C62.9841 17.7002 62.9093 17.6261 62.8719 17.5767L59.1692 13.0007V9.5548Z" fill="#2A76C4"/>
<path d="M68.7273 17.9472C68.5902 17.9472 68.478 17.904 68.3907 17.8175C68.3034 17.7311 68.2598 17.6199 68.2598 17.4841V5.44196C68.2598 5.3061 68.3034 5.19494 68.3907 5.10848C68.478 5.02203 68.5902 4.9788 68.7273 4.9788H71.1958C71.3205 4.9788 71.4265 5.02203 71.5137 5.10848C71.6135 5.19494 71.6633 5.3061 71.6633 5.44196V15.1497H77.311C77.4481 15.1497 77.5603 15.1991 77.6476 15.298C77.7473 15.3844 77.7972 15.4956 77.7972 15.6314V17.4841C77.7972 17.6199 77.7473 17.7311 77.6476 17.8175C77.5603 17.904 77.4481 17.9472 77.311 17.9472H68.7273Z" fill="#2A76C4"/>
<path fill-rule="evenodd" clip-rule="evenodd" d="M78.3896 17.8361C78.4769 17.9102 78.5704 17.9472 78.6702 17.9472H80.9704C81.1823 17.9472 81.3319 17.904 81.4192 17.8175C81.5064 17.7187 81.5626 17.6323 81.5875 17.5582L82.2981 15.6685H87.2912L88.0206 17.5582C88.0455 17.6323 88.1016 17.7187 88.1889 17.8175C88.2886 17.904 88.432 17.9472 88.619 17.9472H90.9192C91.0314 17.9472 91.1249 17.9102 91.1997 17.8361C91.287 17.7496 91.3306 17.657 91.3306 17.5582C91.3306 17.4964 91.3181 17.4408 91.2932 17.3914L86.9172 5.49753C86.8798 5.36167 86.7988 5.24434 86.6741 5.14553C86.5619 5.03438 86.3998 4.9788 86.1879 4.9788H83.4202C83.2082 4.9788 83.0399 5.03438 82.9152 5.14553C82.803 5.24434 82.7282 5.36167 82.6908 5.49753L78.2961 17.3914C78.2837 17.4408 78.2774 17.4964 78.2774 17.5582C78.2774 17.657 78.3148 17.7496 78.3896 17.8361ZM86.5432 13.0007H83.0648L84.7853 8.10975L86.5432 13.0007Z" fill="#2A76C4"/>
<path fill-rule="evenodd" clip-rule="evenodd" d="M92.0566 17.9472C91.9568 17.9472 91.8633 17.9102 91.7761 17.8361C91.7013 17.7496 91.6639 17.657 91.6639 17.5582C91.6639 17.4964 91.6701 17.4408 91.6826 17.3914L96.0773 5.49753C96.1146 5.36167 96.1895 5.24434 96.3017 5.14553C96.4263 5.03438 96.5946 4.9788 96.8066 4.9788H99.5743C99.7862 4.9788 99.9483 5.03438 100.061 5.14553C100.185 5.24434 100.266 5.36167 100.304 5.49753L104.68 17.3914C104.705 17.4408 104.717 17.4964 104.717 17.5582C104.717 17.657 104.673 17.7496 104.586 17.8361C104.511 17.9102 104.418 17.9472 104.306 17.9472H102.005C101.818 17.9472 101.675 17.904 101.575 17.8175C101.488 17.7187 101.432 17.6323 101.407 17.5582L100.678 15.6685H95.6845L94.9739 17.5582C94.949 17.6323 94.8929 17.7187 94.8056 17.8175C94.7183 17.904 94.5687 17.9472 94.3568 17.9472H92.0566ZM96.4513 13.0007H99.9296L98.1717 8.10975L96.4513 13.0007Z" fill="#2A76C4"/>
</svg>
