<svg width="25" height="24" viewBox="0 0 25 24" fill="none" xmlns="http://www.w3.org/2000/svg">
<path d="M9.866 10.682C10.8043 12.3305 12.1695 13.6957 13.818 14.634L14.702 13.396C14.8442 13.1969 15.0543 13.0569 15.2928 13.0023C15.5313 12.9478 15.7814 12.9825 15.996 13.1C17.4103 13.8729 18.9722 14.3378 20.579 14.464C20.8298 14.4839 21.0638 14.5975 21.2345 14.7823C21.4052 14.9671 21.5 15.2094 21.5 15.461V19.923C21.5001 20.1706 21.4083 20.4094 21.2424 20.5932C21.0765 20.777 20.8483 20.8927 20.602 20.918C20.072 20.973 19.538 21 19 21C10.44 21 3.5 14.06 3.5 5.5C3.5 4.962 3.527 4.428 3.582 3.898C3.60725 3.6517 3.72298 3.42352 3.90679 3.25763C4.0906 3.09175 4.32941 2.99995 4.577 3H9.039C9.29056 2.99997 9.5329 3.09475 9.71768 3.26545C9.90247 3.43615 10.0161 3.67022 10.036 3.921C10.1622 5.52779 10.6271 7.08968 11.4 8.504C11.5175 8.71856 11.5522 8.96874 11.4977 9.2072C11.4431 9.44565 11.3031 9.65584 11.104 9.798L9.866 10.682ZM7.344 10.025L9.244 8.668C8.70478 7.50409 8.33535 6.26884 8.147 5H5.51C5.504 5.166 5.501 5.333 5.501 5.5C5.5 12.956 11.544 19 19 19C19.167 19 19.334 18.997 19.5 18.99V16.353C18.2312 16.1646 16.9959 15.7952 15.832 15.256L14.475 17.156C13.9287 16.9437 13.398 16.6931 12.887 16.406L12.829 16.373C10.8676 15.2567 9.24328 13.6324 8.127 11.671L8.094 11.613C7.80691 11.102 7.55628 10.5713 7.344 10.025Z" fill="#989C9F"/>
</svg>
