<svg width="49" height="48" viewBox="0 0 49 48" fill="none" xmlns="http://www.w3.org/2000/svg">
<mask id="mask0_5973_18388" style="mask-type:alpha" maskUnits="userSpaceOnUse" x="0" y="0" width="49" height="48">
<rect x="0.5" width="48" height="48" fill="#D9D9D9"/>
</mask>
<g mask="url(#mask0_5973_18388)">
<path d="M39.7308 29.5192V14.0731L28.5 6.22306L17.2693 14.0731V21.0615H15.7308V13.3423L28.5 4.23071L41.2693 13.3423V29.5192H39.7308ZM29.6923 16.2692H31.3077V14.6538H29.6923V16.2692ZM25.6923 16.2692H27.3077V14.6538H25.6923V16.2692ZM29.6923 20.2692H31.3077V18.6538H29.6923V20.2692ZM25.6923 20.2692H27.3077V18.6538H25.6923V20.2692ZM27.9539 42.0923L12.0193 37.4115V39.9923H4.5769V24.7538H17.1039L29.3539 29.2846C29.9975 29.5153 30.5571 29.9224 31.0327 30.5057C31.5083 31.089 31.7462 31.9782 31.7462 33.1731H38.5616C39.6282 33.1731 40.4359 33.5708 40.9847 34.3663C41.5334 35.1618 41.8077 36.2423 41.8077 37.6077V37.8308L27.9539 42.0923ZM6.1154 38.4538H10.4308V26.2923H6.1154V38.4538ZM27.7923 40.4923L40.2077 36.7077C40.1359 36.0743 39.9628 35.5833 39.6885 35.2346C39.4141 34.8859 39.0385 34.7115 38.5616 34.7115H28.827C27.9552 34.7115 27.0686 34.6513 26.1673 34.5308C25.266 34.4102 24.4962 34.2461 23.8577 34.0384L19.6923 32.75L20.4077 31.1961L24.0193 32.4731C24.8013 32.7397 25.6058 32.9231 26.4327 33.0231C27.2596 33.1231 28.4898 33.1731 30.1231 33.1731C30.1231 32.5423 30.0225 32.0224 29.8212 31.6134C29.6199 31.2045 29.2975 30.9166 28.8539 30.75L16.9116 26.2923H12.0193V35.7615L27.7923 40.4923Z" fill="#1C1B1F"/>
</g>
</svg>
