<svg width="49" height="48" viewBox="0 0 49 48" fill="none" xmlns="http://www.w3.org/2000/svg">
<mask id="mask0_5973_18325" style="mask-type:alpha" maskUnits="userSpaceOnUse" x="0" y="0" width="49" height="48">
<rect x="0.5" width="48" height="48" fill="#D9D9D9"/>
</mask>
<g mask="url(#mask0_5973_18325)">
<path d="M31.2706 20.927C31.8351 20.927 32.3221 20.7191 32.7318 20.3034C33.1413 19.8878 33.3461 19.3977 33.3461 18.8332C33.3461 18.2688 33.1383 17.7817 32.7227 17.3721C32.307 16.9625 31.817 16.7577 31.2525 16.7577C30.688 16.7577 30.201 16.9655 29.7914 17.3811C29.3817 17.7968 29.1769 18.2869 29.1769 18.8513C29.1769 19.4158 29.3847 19.9029 29.8004 20.3125C30.216 20.7221 30.7061 20.927 31.2706 20.927ZM17.7475 20.927C18.312 20.927 18.7991 20.7191 19.2087 20.3034C19.6183 19.8878 19.8231 19.3977 19.8231 18.8332C19.8231 18.2688 19.6153 17.7817 19.1996 17.3721C18.784 16.9625 18.2939 16.7577 17.7294 16.7577C17.1649 16.7577 16.6779 16.9655 16.2682 17.3811C15.8586 17.7968 15.6538 18.2869 15.6538 18.8513C15.6538 19.4158 15.8617 19.9029 16.2773 20.3125C16.693 20.7221 17.183 20.927 17.7475 20.927ZM24.5 33.7577C26.3923 33.7577 28.1353 33.2494 29.7289 32.2327C31.3225 31.216 32.5231 29.8577 33.3308 28.1577H31.6923C30.9256 29.4397 29.9051 30.4391 28.6306 31.1558C27.3561 31.8724 25.9786 32.2307 24.4979 32.2307C23.0172 32.2307 21.6404 31.8743 20.3673 31.1616C19.0942 30.4487 18.091 29.4474 17.3577 28.1577H15.6692C16.4846 29.8577 17.6872 31.216 19.2769 32.2327C20.8667 33.2494 22.6077 33.7577 24.5 33.7577ZM24.5067 42C22.0176 42 19.6774 41.5277 17.4862 40.583C15.295 39.6384 13.3889 38.3564 11.7679 36.737C10.147 35.1176 8.86383 33.2133 7.9183 31.0241C6.97277 28.8349 6.5 26.4958 6.5 24.0067C6.5 21.5176 6.97232 19.1774 7.91695 16.9862C8.86162 14.795 10.1437 12.8889 11.7631 11.268C13.3825 9.64705 15.2867 8.36383 17.4759 7.4183C19.6651 6.47277 22.0042 6 24.4933 6C26.9824 6 29.3226 6.47232 31.5138 7.41695C33.705 8.36162 35.6111 9.64365 37.232 11.263C38.853 12.8824 40.1362 14.7867 41.0817 16.9759C42.0272 19.1651 42.5 21.5042 42.5 23.9933C42.5 26.4824 42.0277 28.8226 41.083 31.0138C40.1384 33.205 38.8564 35.1111 37.237 36.732C35.6176 38.353 33.7133 39.6362 31.5241 40.5817C29.3349 41.5272 26.9958 42 24.5067 42ZM24.4963 40.4616C29.0907 40.4616 32.9836 38.8672 36.1747 35.6785C39.3659 32.4898 40.9616 28.5982 40.9616 24.0038C40.9616 19.4093 39.3672 15.5164 36.1785 12.3253C32.9898 9.13405 29.0982 7.53845 24.5038 7.53845C19.9093 7.53845 16.0164 9.1328 12.8253 12.3215C9.63405 15.5102 8.03845 19.4018 8.03845 23.9963C8.03845 28.5907 9.6328 32.4836 12.8215 35.6747C16.0102 38.8659 19.9018 40.4616 24.4963 40.4616Z" fill="#232B33"/>
</g>
</svg>
