<svg width="49" height="48" viewBox="0 0 49 48" fill="none" xmlns="http://www.w3.org/2000/svg">
<mask id="mask0_5973_18396" style="mask-type:alpha" maskUnits="userSpaceOnUse" x="0" y="0" width="49" height="48">
<rect x="0.5" width="48" height="48" fill="#D9D9D9"/>
</mask>
<g mask="url(#mask0_5973_18396)">
<path d="M12.5 38.0001V22.0001H9.73071L24.5 8.69238L39.2692 22.0001H36.5V38.0001H12.5ZM14.0384 36.4616H34.9615V20.1693L24.5 10.7808L14.0384 20.1762V36.4616Z" fill="#1C1B1F"/>
<path d="M29.9583 23.8568C29.611 24.2041 29.2083 24.4714 28.7499 24.6589C28.2916 24.8464 27.8194 24.9402 27.3333 24.9402C26.8472 24.9402 26.3749 24.8464 25.9166 24.6589C25.4583 24.4714 25.0555 24.2041 24.7083 23.8568L23.1666 22.3152C22.9583 22.1068 22.7152 21.9506 22.4374 21.8464C22.1597 21.7423 21.8749 21.6902 21.5833 21.6902C21.3055 21.6902 21.0347 21.7457 20.7708 21.8568C20.5069 21.9679 20.2708 22.1207 20.0624 22.3152L18.4999 23.8568L17.4583 22.7943L18.9999 21.2527C19.3472 20.9054 19.743 20.6381 20.1874 20.4506C20.6319 20.2631 21.0972 20.1693 21.5833 20.1693C22.0694 20.1693 22.5416 20.2631 22.9999 20.4506C23.4583 20.6381 23.861 20.9054 24.2083 21.2527L25.7499 22.7943C25.9722 23.0027 26.2152 23.1659 26.4791 23.2839C26.743 23.402 27.0277 23.461 27.3333 23.461C27.6249 23.461 27.9062 23.3985 28.177 23.2735C28.4479 23.1485 28.6874 22.9888 28.8958 22.7943L30.4374 21.2527L31.4999 22.3152L29.9583 23.8568ZM29.9583 27.961C29.5972 28.3082 29.1909 28.5791 28.7395 28.7735C28.2881 28.9679 27.8194 29.0652 27.3333 29.0652C26.8472 29.0652 26.3784 28.9679 25.927 28.7735C25.4756 28.5791 25.0694 28.3082 24.7083 27.961L23.1666 26.4193C22.9583 26.1971 22.7152 26.0374 22.4374 25.9402C22.1597 25.8429 21.8749 25.7943 21.5833 25.7943C21.3055 25.7943 21.0312 25.8499 20.7604 25.961C20.4895 26.0721 20.2569 26.2249 20.0624 26.4193L18.5208 27.961L17.4583 26.9193L18.9999 25.3777C19.3472 25.0304 19.743 24.7596 20.1874 24.5652C20.6319 24.3707 21.0972 24.2735 21.5833 24.2735C22.0694 24.2735 22.5416 24.3707 22.9999 24.5652C23.4583 24.7596 23.861 25.0304 24.2083 25.3777L25.7499 26.9193C25.9722 27.1277 26.2187 27.2874 26.4895 27.3985C26.7604 27.5096 27.0416 27.5652 27.3333 27.5652C27.6249 27.5652 27.9062 27.5061 28.177 27.3881C28.4479 27.27 28.6874 27.1138 28.8958 26.9193L30.4583 25.3777L31.4999 26.4193L29.9583 27.961ZM29.9791 32.086C29.618 32.4471 29.2117 32.7179 28.7604 32.8985C28.309 33.0791 27.8333 33.1693 27.3333 33.1693C26.8472 33.1693 26.3749 33.0756 25.9166 32.8881C25.4583 32.7006 25.0555 32.4332 24.7083 32.086L23.1666 30.5443C22.9583 30.3221 22.7152 30.1624 22.4374 30.0652C22.1597 29.9679 21.868 29.9193 21.5624 29.9193C21.2847 29.9193 21.0138 29.9749 20.7499 30.086C20.486 30.1971 20.2569 30.3499 20.0624 30.5443L18.5208 32.086L17.4791 31.0235L18.9999 29.4818C19.3472 29.1346 19.743 28.8673 20.1874 28.6798C20.6319 28.4923 21.0972 28.3985 21.5833 28.3985C22.0694 28.3985 22.5416 28.4923 22.9999 28.6798C23.4583 28.8673 23.861 29.1346 24.2083 29.4818L25.7499 31.0235C25.9722 31.2318 26.2187 31.3916 26.4895 31.5027C26.7604 31.6138 27.0486 31.6693 27.3541 31.6693C27.6458 31.6693 27.9235 31.6103 28.1874 31.4923C28.4513 31.3742 28.6874 31.2179 28.8958 31.0235L30.4583 29.4818L31.4999 30.5443L29.9791 32.086Z" fill="#1C1B1F"/>
</g>
</svg>
